<?xml version="1.0" encoding="utf-8"?>
<!-- Generator: Adobe Illustrator 27.5.0, SVG Export Plug-In . SVG Version: 6.00 Build 0)  -->
<svg version="1.1" xmlns="http://www.w3.org/2000/svg" xmlns:xlink="http://www.w3.org/1999/xlink" x="0px" y="0px"
	 viewBox="0 0 650 500" style="enable-background:new 0 0 650 500;" xml:space="preserve">
<g id="BACKGROUND">
	<rect style="fill:#FFFFFF;" width="650" height="500"/>
</g>
<g id="OBJECTS">
	<g>
		
			<ellipse transform="matrix(0.0241 -0.9997 0.9997 0.0241 -20.7139 654.2921)" style="fill:#1D1D1B;" cx="324.755" cy="337.755" rx="38.609" ry="244.892"/>
		<g>
			<g>
				<g>
					<path style="fill:#FFFFFF;stroke:#1D1D1B;stroke-width:3.8532;stroke-linejoin:round;stroke-miterlimit:10;" d="
						M300.301,257.41c16.392-0.373,30.187,21.588,30.812,49.051c0.625,27.463-12.157,50.029-28.549,50.402l-27.676,0.63
						l-2.268-99.686L300.301,257.41z"/>
					
						<ellipse transform="matrix(0.9997 -0.0227 0.0227 0.9997 -6.9272 6.3154)" style="fill:#FFFFFF;stroke:#1D1D1B;stroke-width:3.8558;stroke-miterlimit:10;" cx="274.107" cy="307.614" rx="29.688" ry="49.884"/>
					
						<ellipse transform="matrix(0.9997 -0.0228 0.0228 0.9997 -6.9287 6.2917)" style="fill:none;stroke:#1D1D1B;stroke-width:3.0686;stroke-miterlimit:10;" cx="273.037" cy="307.639" rx="23.719" ry="39.853"/>
					<path style="fill:none;stroke:#1D1D1B;stroke-width:2.0762;stroke-miterlimit:10;" d="M278.473,307.515
						c0.144,6.326-2.791,11.523-6.556,11.609c-3.765,0.086-6.933-4.973-7.077-11.298c-0.144-6.326,2.791-11.523,6.556-11.609
						C275.16,296.131,278.329,301.189,278.473,307.515z"/>
					<path style="fill:none;stroke:#1D1D1B;stroke-width:0.7786;stroke-miterlimit:10;" d="M278.473,307.515
						c0.144,6.326-2.224,11.51-5.29,11.58c-3.065,0.07-5.667-5.002-5.811-11.327c-0.144-6.326,2.224-11.51,5.29-11.58
						C275.727,296.118,278.329,301.189,278.473,307.515z"/>
					<path style="fill:none;stroke:#1D1D1B;stroke-width:2.0762;stroke-miterlimit:10;" d="M265.662,269.718
						c3.308,8.52,4.74,17.764,4.164,26.886"/>
					<path style="fill:none;stroke:#1D1D1B;stroke-width:2.0762;stroke-miterlimit:10;" d="M275.339,297.884
						c0.434-4.397,0.875-8.826,2.134-13.062c1.259-4.236,3.404-8.314,6.755-11.195"/>
					<path style="fill:none;stroke:#1D1D1B;stroke-width:2.0762;stroke-miterlimit:10;" d="M278.033,303.375
						c5.892,0.584,11.84,0.597,17.735,0.041"/>
					<path style="fill:none;stroke:#1D1D1B;stroke-width:2.0762;stroke-miterlimit:10;" d="M277.608,312.646
						c6.295,2.277,12.027,6.092,16.557,11.019"/>
					<path style="fill:none;stroke:#1D1D1B;stroke-width:2.0762;stroke-miterlimit:10;" d="M268.452,317.812
						c-0.784,8.059-3.224,15.953-7.124,23.048"/>
					<path style="fill:none;stroke:#1D1D1B;stroke-width:2.0762;stroke-miterlimit:10;" d="M274.398,318.378
						c-0.285,9.13,2.348,18.33,7.421,25.926"/>
					<path style="fill:none;stroke:#1D1D1B;stroke-width:2.0762;stroke-miterlimit:10;" d="M265.132,302.415
						c-5.421,0.332-10.938-2.128-14.314-6.383"/>
					<path style="fill:none;stroke:#1D1D1B;stroke-width:2.0762;stroke-miterlimit:10;" d="M265.835,313.557
						c-5.215-0.253-10.498,1.105-14.945,3.841"/>
				</g>
				<g>
					<path style="fill:#FFFFFF;stroke:#1D1D1B;stroke-width:3.8532;stroke-linejoin:round;stroke-miterlimit:10;" d="
						M522.612,246.128c16.392-0.373,30.187,21.588,30.812,49.051c0.625,27.463-12.157,50.029-28.549,50.402l-27.676,0.63
						l-2.268-99.686L522.612,246.128z"/>
					
						<ellipse transform="matrix(0.9997 -0.0228 0.0228 0.9997 -6.6132 11.3705)" style="fill:#FFFFFF;stroke:#1D1D1B;stroke-width:3.8558;stroke-miterlimit:10;" cx="496.418" cy="296.332" rx="29.688" ry="49.884"/>
					
						<ellipse transform="matrix(0.9997 -0.0228 0.0228 0.9997 -6.6141 11.3462)" style="fill:none;stroke:#1D1D1B;stroke-width:3.0686;stroke-miterlimit:10;" cx="495.348" cy="296.356" rx="23.719" ry="39.853"/>
				</g>
				<g>
					<path style="fill:#FFFFFF;stroke:#1D1D1B;stroke-width:2.8912;stroke-linejoin:round;stroke-miterlimit:10;" d="
						M136.213,245.363c11-0.25,20.343,18.226,20.867,41.269c0.524,23.042-7.968,41.925-18.968,42.175l-18.572,0.423l-1.903-83.639
						L136.213,245.363z"/>
					
						<ellipse transform="matrix(0.9997 -0.0227 0.0227 0.9997 -6.5068 2.7775)" style="fill:#FFFFFF;stroke:#1D1D1B;stroke-width:2.8932;stroke-miterlimit:10;" cx="118.825" cy="287.381" rx="19.923" ry="41.854"/>
					
						<ellipse transform="matrix(0.9997 -0.0228 0.0228 0.9997 -6.5082 2.7615)" style="fill:none;stroke:#1D1D1B;stroke-width:2.3026;stroke-miterlimit:10;" cx="118.107" cy="287.397" rx="15.917" ry="33.438"/>
					<path style="fill:none;stroke:#1D1D1B;stroke-width:1.5579;stroke-miterlimit:10;" d="M121.755,287.314
						c0.121,5.307-1.829,9.656-4.356,9.714c-2.526,0.057-4.672-4.198-4.793-9.506c-0.121-5.307,1.829-9.656,4.356-9.714
						C119.488,277.751,121.634,282.007,121.755,287.314z"/>
					<path style="fill:none;stroke:#1D1D1B;stroke-width:0.5842;stroke-miterlimit:10;" d="M121.755,287.314
						c0.121,5.307-1.449,9.648-3.506,9.695c-2.057,0.047-3.822-4.218-3.943-9.525c-0.121-5.307,1.449-9.648,3.506-9.695
						C119.869,277.742,121.634,282.007,121.755,287.314z"/>
					<path style="fill:none;stroke:#1D1D1B;stroke-width:1.5579;stroke-miterlimit:10;" d="M113.013,255.556
						c2.253,7.161,3.249,14.921,2.897,22.572"/>
					<path style="fill:none;stroke:#1D1D1B;stroke-width:1.5579;stroke-miterlimit:10;" d="M119.615,279.222
						c0.275-3.688,0.553-7.401,1.382-10.95c0.829-3.548,2.253-6.962,4.491-9.366"/>
					<path style="fill:none;stroke:#1D1D1B;stroke-width:1.5579;stroke-miterlimit:10;" d="M121.444,283.839
						c3.957,0.512,7.949,0.546,11.903,0.102"/>
					<path style="fill:none;stroke:#1D1D1B;stroke-width:1.5579;stroke-miterlimit:10;" d="M121.194,291.616
						c4.233,1.934,8.095,5.156,11.155,9.308"/>
					<path style="fill:none;stroke:#1D1D1B;stroke-width:1.5579;stroke-miterlimit:10;" d="M115.069,295.915
						c-0.495,6.758-2.103,13.371-4.693,19.309"/>
					<path style="fill:none;stroke:#1D1D1B;stroke-width:1.5579;stroke-miterlimit:10;" d="M119.062,296.413
						c-0.157,7.659,1.646,15.387,5.08,21.779"/>
					<path style="fill:none;stroke:#1D1D1B;stroke-width:1.5579;stroke-miterlimit:10;" d="M112.782,282.984
						c-3.637,0.258-7.349-1.827-9.631-5.409"/>
					<path style="fill:none;stroke:#1D1D1B;stroke-width:1.5579;stroke-miterlimit:10;" d="M113.297,292.335
						c-3.501-0.232-7.041,0.887-10.015,3.166"/>
				</g>
				<path style="fill:#FFFFFF;stroke:#1D1D1B;stroke-width:3.8558;stroke-miterlimit:10;" d="M444.184,179.904
					c6.308-0.878,12.922,0.649,18.206,4.205c2.684,1.806,5.246,4.843,4.333,7.946c-0.462,1.569-1.767,2.788-3.251,3.477
					c-1.483,0.689-3.139,0.911-4.771,1.022c-3.227,0.22-6.481,0.038-9.663-0.54c-3.09-0.561-6.211-1.55-8.568-3.625
					C434.671,187.286,437.035,180.899,444.184,179.904z"/>
				<path style="fill:#FFFFFF;stroke:#1D1D1B;stroke-width:3.8558;stroke-miterlimit:10;" d="M114.657,191.675
					c-6.383,5.078-12.926,10.34-16.922,17.451c-3.298,5.868-4.634,12.603-5.924,19.209c-3.985,20.409-7.066,44.293,7.061,59.552
					c0.108-8.998,0.215-17.996,0.323-26.995c0.087-7.304,1.408-16.397,8.353-18.661c6.682-2.178,13.117,3.958,16.672,10.02
					c4.492,7.659,7.422,16.229,8.561,25.035c1.438,11.116,1.428,24.927,11.397,30.051c2.587,1.33,5.515,1.805,8.387,2.262
					c32.303,5.145,64.605,10.29,96.908,15.434c-1.876-18.447-1.613-37.111,0.783-55.498c0.75-5.759,1.766-11.65,4.762-16.625
					c2.995-4.975,8.407-8.891,14.203-8.522c6.229,0.397,11.122,5.389,14.813,10.423c13.239,18.056,19.326,41.212,16.677,63.443
					c-0.388,3.258-0.913,6.764,0.64,9.654c2.453,4.565,8.603,5.254,13.784,5.363c74.626,1.579,149.327-0.445,223.758-6.062
					c6.54-0.494,14.262-1.79,17.05-7.727c0.774-1.647,1.049-3.478,1.297-5.281c1.508-10.97,2.318-22.036,2.421-33.108
					c0.14-14.994-1.302-30.844-9.933-43.106c-9.943-14.126-27.325-20.671-43.818-25.805c-23.194-7.22-47.203-13.403-67.51-26.735
					c-19.484-12.792-34.919-31.783-56.231-41.219c-26.091-11.551-57.979-8.555-85.971-8.781
					c-31.433-0.254-62.865,0.396-94.288,1.102c-7.223,0.162-16.57-0.138-23.019,3.704c-6.746,4.019-13.087,10.729-19.319,15.687
					C144.602,167.853,129.63,179.764,114.657,191.675z"/>
				<path style="fill:none;stroke:#1D1D1B;stroke-width:3.8558;stroke-miterlimit:10;" d="M234.181,144.838
					c5.237,15.114,10.474,30.228,15.712,45.342c0.442,1.276,0.919,2.607,1.913,3.523c1.564,1.441,3.928,1.458,6.054,1.391
					c55.602-1.752,110.864-1.524,166.543-2.304c4.889-0.068,9.779-0.137,14.668-0.206c-10.517-6.583-19.731-15.059-28.271-24.059
					c-7.385-7.783-14.604-16.213-24.319-20.765c-9.617-4.506-20.614-4.704-31.233-4.794c-31.869-0.27-63.741-0.311-95.61-0.121
					c-8.464,0.05-17.35,0.119-25.754,1.119L234.181,144.838z"/>
				<path style="fill:none;stroke:#1D1D1B;stroke-width:3.8558;stroke-miterlimit:10;" d="M132.318,194.847
					c4.934-7.358,10.355-14.793,16.942-20.776c2.886-2.621,5.867-4.823,8.692-7.638c3.042-3.031,6.204-5.941,9.477-8.721
					c4.59-3.899,9.698-8.811,15.389-10.98c4.173-1.591,8.722-1.844,13.187-1.955c4.745-0.118,9.5-0.095,14.227,0.331
					c2.085,0.188,4.222,0.473,6.051,1.49c2.527,1.406,4.124,4.006,5.514,6.541c7.929,14.453,12.844,30.551,14.338,46.969
					c-29.647-0.865-74.489-3.421-104.146-3.792L132.318,194.847z"/>
				<path style="fill:#1D1D1B;" d="M195.332,144.887c-11.527,15.324-19.421,33.361-22.858,52.226
					c3.467,0.279,6.933,0.559,10.4,0.838c1.936-18.784,8.453-37.079,18.83-52.856L195.332,144.887z"/>
				<path style="fill:#1D1D1B;" d="M158.895,165.435c-6.377,8.9-10.847,19.16-13.021,29.89c-0.06,0.298-0.133,0.621-0.368,0.815
					c-0.237,0.195-0.571,0.202-0.877,0.2c-4.253-0.024-8.507-0.048-12.76-0.072c0.933-3.67,3.111-6.889,5.412-9.896
					c3.969-5.187,8.424-10.002,13.287-14.362L158.895,165.435z"/>
				<path style="fill:#FFFFFF;stroke:#1D1D1B;stroke-width:3.8558;stroke-miterlimit:10;" d="M296.788,234.799
					c-1.636-0.077-3.26-0.175-4.868-0.304c-0.165-0.013,2.874,7.764,3.312,8.476c1.371,2.226,2.857,4.778,4.682,6.635
					c4.358,4.435,10.161,7.744,16.03,9.694c7.282,2.419,15.061,2.815,22.73,3.061c12.514,0.402,25.204,0.44,37.337-2.647
					c-0.398-2.714-2.149-5.027-4.021-7.031C352.322,231.628,322.928,236.023,296.788,234.799z"/>
				<path style="fill:none;stroke:#1D1D1B;stroke-width:3.8558;stroke-miterlimit:10;" d="M542.917,230.348
					c-5.526,6.302-7.381,14.941-8.781,23.204c7.35,1.299,15.028,0.701,22.088-1.721"/>
				<path style="fill:#FFFFFF;stroke:#1D1D1B;stroke-width:3.8558;stroke-miterlimit:10;" d="M524.522,254.977
					c-3.128,6.159-6.492,12.591-12.242,16.42c-4.89,3.257-10.914,4.22-16.742,4.962c-10.765,1.372-21.591,2.26-32.436,2.664
					c-25.452,0.949-52.307,1.672-73.564-14.507c-2.389-1.819-4.707-3.845-6.203-6.448c5.895,0.157,11.793,0.168,17.688,0.034
					c27.732-0.63,55.51-0.461,83.268-1.36C497.708,256.309,511.119,255.72,524.522,254.977z"/>
				<path style="fill:none;stroke:#1D1D1B;stroke-width:2.0762;stroke-miterlimit:10;" d="M231.735,208.325
					c-4.682,11.708-5.006,24.642-5.099,37.251c-0.158,21.253,0.448,48.153,1.012,69.399"/>
				<path style="fill:none;stroke:#1D1D1B;stroke-width:2.0762;stroke-miterlimit:10;" d="M175.684,198.469
					c-7.05,16.113-7.258,34.269-7.352,51.857c-0.084,15.763-0.281,39.383,0.879,55.103"/>
				<path style="fill:none;stroke:#1D1D1B;stroke-width:2.0762;stroke-miterlimit:10;" d="M131.665,196.161
					c-5.94,7.535-8.734,17.174-9.432,26.743c-0.698,9.569,0.567,19.164,2.009,28.649"/>
				<path style="fill:none;stroke:#1D1D1B;stroke-width:2.0762;stroke-miterlimit:10;" d="M136.207,296.554
					c10.149,7.139,74.796,16.68,112.795,21.451"/>
				<path style="fill:#FFFFFF;stroke:#1D1D1B;stroke-width:3.8558;stroke-miterlimit:10;" d="M379.479,306.803
					c0.267-1.039,0.648-1.943,1.212-2.503c0.609-0.605,1.497-0.813,2.34-0.973c4.94-0.936,9.992-1.075,15.018-1.212
					c43.752-1.192,87.361-2.235,131.079-4.108c1.703-0.073,3.684-0.025,4.731,1.32c0.631,0.811,0.745,1.901,0.804,2.927
					c0.21,3.65,0.038,7.321-0.511,10.935c-0.189,1.241-0.488,2.589-1.478,3.361c-0.786,0.613-1.839,0.725-2.831,0.813
					c-28.45,2.528-56.972,4.235-85.52,5.121c-19.252,0-38.496,0.567-57.746,0.498c-2.171-0.008-4.548-0.089-6.183-1.518
					c-2.221-1.942-2.055-5.383-1.704-8.313C378.867,311.661,378.93,308.944,379.479,306.803z"/>
				<path style="fill:#FFFFFF;stroke:#1D1D1B;stroke-width:3.8558;stroke-miterlimit:10;" d="M333.165,304.405
					c-1.246-0.003-2.531,0.001-3.679,0.484c-1.798,0.757-2.957,2.594-3.402,4.493c-0.445,1.899-0.284,3.881-0.12,5.824
					c0.08,0.95,0.173,1.94,0.681,2.747c1.065,1.692,3.412,1.885,5.412,1.896c9.194,0.051,18.389,0.103,27.583,0.154
					c1.171,0.007,2.451-0.024,3.348-0.779c0.681-0.574,1.003-1.461,1.242-2.319c1.861-6.684,1.407-12.179-6.033-12.432
					C349.873,304.191,341.495,304.428,333.165,304.405z"/>
				<path style="fill:none;stroke:#1D1D1B;stroke-width:3.8558;stroke-miterlimit:10;" d="M558.586,297.948
					c-4.413,0.582-8.827,1.165-13.24,1.748c-1.111,0.147-2.331,0.351-3.045,1.214c-0.669,0.808-0.692,1.954-0.682,3.003
					c0.017,1.935,0.035,3.87,0.052,5.805c0.009,0.969,0.055,2.036,0.717,2.744c0.671,0.717,1.753,0.826,2.734,0.869
					c4.501,0.195,9.021-0.056,13.472-0.748"/>
				<path style="fill:none;stroke:#1D1D1B;stroke-width:2.0762;stroke-miterlimit:10;" d="M251.572,194.634
					c8.16,17.395,22.376,31.877,39.616,40.36"/>
				<path style="fill:none;stroke:#1D1D1B;stroke-width:2.0762;stroke-miterlimit:10;" d="M350.387,239.163
					c16.782,3.251,33.989,3.4,51.083,3.537c38.846,0.312,77.778,0.621,116.442-3.148c8.485-0.827,17.778-2.268,23.357-8.715"/>
				<g>
					<path style="fill:#FFFFFF;stroke:#1D1D1B;stroke-width:3.8558;stroke-miterlimit:10;" d="M226.455,193.263
						c2.479-0.11,5.19-0.405,7.226,1.013c1.413,0.984,2.227,2.662,2.501,4.362c0.274,1.7,0.067,3.44-0.209,5.14
						c-0.185,1.136-0.425,2.324-1.169,3.202c-0.993,1.173-2.661,1.526-4.197,1.508c-1.519-0.018-3.075-0.347-4.32-1.218
						c-1.05-0.735-1.812-1.8-2.677-2.746c-1.854-2.027-4.257-3.546-6.883-4.351c-0.432-0.132-0.911-0.277-1.141-0.666
						c-0.152-0.257-0.16-0.572-0.159-0.87c0.005-1.541,0.161-3.119,0.825-4.509C218.574,189.264,222.48,193.439,226.455,193.263z"/>
					<path style="fill:#FFFFFF;stroke:#1D1D1B;stroke-width:3.8558;stroke-miterlimit:10;" d="M192.378,185.26
						c-2.365,1.427-4.641,3.163-6.039,5.544s-1.761,5.523-0.323,7.881c1.872,3.067,5.929,3.838,9.513,4.109
						c6.017,0.454,12.062,0.341,18.095,0.193c1.1-0.027,2.271-0.077,3.176-0.704c0.932-0.646,1.39-1.772,1.735-2.852
						c1.215-3.8,1.648-7.848,1.265-11.819C218.449,173.61,199.872,180.738,192.378,185.26z"/>
				</g>
				<path style="fill:none;stroke:#1D1D1B;stroke-width:2.0762;stroke-miterlimit:10;" d="M391.57,258.761
					c0.043,2.197,0.087,4.393,0.13,6.59"/>
				<path style="fill:none;stroke:#1D1D1B;stroke-width:2.0762;stroke-miterlimit:10;" d="M396.622,258.761
					c-0.113,3.205-0.073,6.416,0.119,9.618"/>
				<path style="fill:none;stroke:#1D1D1B;stroke-width:2.0762;stroke-miterlimit:10;" d="M403.723,258.226c0,4.63,0,9.26,0,13.89"
					/>
				<path style="fill:none;stroke:#1D1D1B;stroke-width:2.0762;stroke-miterlimit:10;" d="M411.532,258.404
					c0.077,5.58,0.154,11.159,0.232,16.739"/>
				<path style="fill:none;stroke:#1D1D1B;stroke-width:2.0762;stroke-miterlimit:10;" d="M418.809,257.87
					c0.048,6.352,0.097,12.703,0.145,19.055"/>
				<path style="fill:none;stroke:#1D1D1B;stroke-width:2.0762;stroke-miterlimit:10;" d="M426.778,257.334
					c0.143,6.708,0.285,13.417,0.428,20.125"/>
				<path style="fill:none;stroke:#1D1D1B;stroke-width:2.0762;stroke-miterlimit:10;" d="M434.931,258.225
					c0.104,6.649,0.207,13.297,0.311,19.946"/>
				<path style="fill:none;stroke:#1D1D1B;stroke-width:2.0762;stroke-miterlimit:10;" d="M442.649,257.87
					c-0.036,7.125,0.102,14.251,0.414,21.37"/>
				<path style="fill:none;stroke:#1D1D1B;stroke-width:2.0762;stroke-miterlimit:10;" d="M450.53,256.98
					c0.273,7.063,0.546,14.125,0.818,21.188"/>
				<path style="fill:none;stroke:#1D1D1B;stroke-width:2.0762;stroke-miterlimit:10;" d="M459.303,257.87
					c-0.125,6.828-0.021,13.66,0.313,20.48"/>
				<path style="fill:none;stroke:#1D1D1B;stroke-width:2.0762;stroke-miterlimit:10;" d="M467.12,257.87c0,6.827,0,13.653,0,20.479
					"/>
				<path style="fill:none;stroke:#1D1D1B;stroke-width:2.0762;stroke-miterlimit:10;" d="M475.621,257.868
					c-0.177,6.647-0.214,13.297-0.11,19.946"/>
				<path style="fill:none;stroke:#1D1D1B;stroke-width:2.0762;stroke-miterlimit:10;" d="M483.427,256.799
					c0.12,6.531,0.239,13.061,0.359,19.592"/>
				<path style="fill:none;stroke:#1D1D1B;stroke-width:2.0762;stroke-miterlimit:10;" d="M491.176,256.979
					c-0.064,6.352-0.05,12.705,0.044,19.056"/>
				<path style="fill:none;stroke:#1D1D1B;stroke-width:2.0762;stroke-miterlimit:10;" d="M498.655,256.623
					c0.13,5.936,0.26,11.871,0.39,17.807"/>
				<path style="fill:none;stroke:#1D1D1B;stroke-width:2.0762;stroke-miterlimit:10;" d="M505.991,256.088
					c0.076,5.937,0.152,11.873,0.228,17.81"/>
				<path style="fill:none;stroke:#1D1D1B;stroke-width:2.0762;stroke-miterlimit:10;" d="M512.649,255.199
					c0.071,5.224,0.142,10.447,0.214,15.671"/>
				<path style="fill:none;stroke:#1D1D1B;stroke-width:2.0762;stroke-miterlimit:10;" d="M517.423,255.192
					c0.224,2.91,0.448,5.819,0.673,8.729"/>
				<path style="fill:none;stroke:#1D1D1B;stroke-width:2.0762;stroke-miterlimit:10;" d="M379.858,307.599
					c50.019-1.5,100.038-3,150.056-4.5"/>
				<path style="fill:none;stroke:#1D1D1B;stroke-width:2.0762;stroke-miterlimit:10;" d="M528.911,299.182
					c0.34,6.057,0.508,12.124,0.503,18.19"/>
				<path style="fill:none;stroke:#1D1D1B;stroke-width:2.0762;stroke-miterlimit:10;" d="M378.705,312.868
					c50.042-0.715,100.07-2.384,150.048-5.007"/>
				<path style="fill:none;stroke:#1D1D1B;stroke-width:2.0762;stroke-miterlimit:10;" d="M379.161,317.826
					c50.125-0.55,100.237-2.253,150.283-5.106"/>
				<path style="fill:none;stroke:#1D1D1B;stroke-width:2.0762;stroke-miterlimit:10;" d="M349.764,239.505
					c7.434,5.555,13.245,13.256,16.547,21.929"/>
				<path style="fill:none;stroke:#1D1D1B;stroke-width:2.0762;stroke-miterlimit:10;" d="M336.271,304.915
					c-0.081,4.723-0.163,9.447-0.244,14.17"/>
			</g>
			<g>
				<g>
					<path style="fill:#1D1D1B;" d="M311.321,245.646c1.467-0.207,2.942-0.333,4.416-0.481c1.476-0.109,2.954-0.196,4.433-0.274
						c2.959-0.148,5.923-0.149,8.884-0.084c2.961,0.09,5.921,0.248,8.867,0.553c1.473,0.156,2.944,0.322,4.412,0.509
						c1.464,0.226,2.93,0.431,4.384,0.716l-8.853-0.428c-2.948-0.115-5.892-0.245-8.838-0.312c-2.946-0.091-5.893-0.117-8.842-0.159
						L311.321,245.646z"/>
				</g>
				<g>
					<path style="fill:#1D1D1B;" d="M327.105,250.824c1.09-0.088,2.178-0.113,3.266-0.176l3.261-0.09
						c2.173-0.066,4.345-0.067,6.517-0.082c4.344,0.01,8.686,0.038,13.044,0.322c-4.335,0.537-8.69,0.697-13.043,0.716
						c-2.177-0.011-4.353-0.037-6.528-0.161l-3.261-0.199C329.274,251.046,328.188,250.97,327.105,250.824z"/>
				</g>
				<g>
					<path style="fill:#1D1D1B;" d="M317.634,253.452c2.836-0.031,5.622,0.172,8.414,0.375c2.789,0.234,5.573,0.47,8.368,0.946
						c-2.817,0.345-5.642,0.295-8.45,0.088C323.161,254.624,320.363,254.231,317.634,253.452z"/>
				</g>
				<g>
					<path style="fill:#1D1D1B;" d="M305.672,240.454c2.111-0.377,4.217-0.437,6.322-0.423c2.104,0.047,4.207,0.171,6.306,0.615
						c-2.111,0.38-4.217,0.439-6.322,0.423C309.874,241.019,307.77,240.895,305.672,240.454z"/>
				</g>
				<g>
					<path style="fill:#1D1D1B;" d="M342.559,255.141c1.598-0.441,3.202-0.564,4.808-0.613c1.606-0.016,3.214,0.044,4.828,0.424
						c-1.598,0.443-3.202,0.566-4.808,0.613C345.78,255.579,344.173,255.518,342.559,255.141z"/>
				</g>
			</g>
			<g>
				<g>
					<path style="fill:#1D1D1B;" d="M343.51,243.719c1.21,1.811,2.016,3.838,2.611,5.911c0.565,2.082,0.924,4.233,0.823,6.409
						c-0.714-2.054-1.24-4.095-1.823-6.131C344.569,247.863,343.964,245.845,343.51,243.719z"/>
				</g>
				<g>
					<path style="fill:#1D1D1B;" d="M334.07,241.65c1.082,1.779,1.811,3.708,2.402,5.671c0.56,1.973,0.984,3.991,1.026,6.073
						c-0.846-1.901-1.439-3.837-2.022-5.782C334.924,245.658,334.382,243.707,334.07,241.65z"/>
				</g>
				<g>
					<path style="fill:#1D1D1B;" d="M322.907,241.88c0.764,0.937,1.203,2.008,1.536,3.104c0.302,1.105,0.5,2.246,0.349,3.446
						c-0.652-1.017-1.02-2.08-1.346-3.159C323.151,244.183,322.898,243.088,322.907,241.88z"/>
				</g>
				<g>
					<path style="fill:#1D1D1B;" d="M308.833,239.24c0.446,0.473,0.591,0.945,0.68,1.432c0.057,0.492,0.054,0.986-0.239,1.567
						c-0.512-0.406-0.698-0.907-0.788-1.416C308.428,240.309,308.462,239.776,308.833,239.24z"/>
				</g>
				<g>
					<path style="fill:#1D1D1B;" d="M319.553,248.561c0.87,1.229,1.437,2.556,1.935,3.909c0.467,1.364,0.861,2.752,0.957,4.256
						c-0.868-1.219-1.438-2.552-1.935-3.909C320.043,251.448,319.647,250.053,319.553,248.561z"/>
				</g>
			</g>
			<g>
				<g>
					<path style="fill:#1D1D1B;" d="M550.958,241.011c-1.045,1.113-2.317,1.91-3.646,2.57c-1.343,0.632-2.758,1.133-4.28,1.257
						c1.234-0.895,2.526-1.545,3.829-2.191C548.179,242.03,549.491,241.422,550.958,241.011z"/>
				</g>
				<g>
					<path style="fill:#1D1D1B;" d="M549.069,247.241c-0.753,0.856-1.751,1.366-2.787,1.701c-1.045,0.305-2.159,0.441-3.262,0.151
						c1.004-0.528,1.975-0.827,2.958-1.143C546.97,247.664,547.943,247.367,549.069,247.241z"/>
				</g>
				<g>
					<path style="fill:#1D1D1B;" d="M545.075,238.736c-0.115,0.517-0.336,0.75-0.598,0.937c-0.279,0.16-0.584,0.263-1.102,0.147
						c0.01-0.533,0.255-0.82,0.544-1.022C544.225,238.623,544.589,238.523,545.075,238.736z"/>
				</g>
				<g>
					<path style="fill:#1D1D1B;" d="M546.159,240.658c1.347,1.128,2.367,2.556,3.205,4.068c0.81,1.527,1.449,3.161,1.657,4.907
						c-0.978-1.455-1.753-2.938-2.569-4.413C547.664,243.73,546.845,242.271,546.159,240.658z"/>
				</g>
				<g>
					<path style="fill:#1D1D1B;" d="M545.477,245.837c0.739,0.566,1.195,1.273,1.583,2.014c0.359,0.755,0.65,1.545,0.655,2.477
						c-0.741-0.565-1.197-1.272-1.583-2.014C545.775,247.558,545.484,246.769,545.477,245.837z"/>
				</g>
			</g>
			<g>
				<g>
					<path style="fill:#1D1D1B;" d="M343.473,307.781c0.417,1.326,0.517,2.671,0.542,4.013c-0.007,1.343-0.092,2.689-0.495,4.019
						c-0.419-1.347-0.519-2.679-0.542-4.013C342.987,310.466,343.072,309.133,343.473,307.781z"/>
				</g>
				<g>
					<path style="fill:#1D1D1B;" d="M351.815,308.913c0.409,1.046,0.501,2.091,0.519,3.137c-0.015,1.046-0.107,2.091-0.519,3.137
						c-0.412-1.046-0.504-2.091-0.519-3.137C351.313,311.004,351.405,309.958,351.815,308.913z"/>
				</g>
				<g>
					<path style="fill:#1D1D1B;" d="M340.27,311.321c3.268-0.366,6.532-0.417,9.794-0.391c3.262,0.057,6.524,0.193,9.781,0.646
						c-3.268,0.368-6.532,0.419-9.794,0.392C346.789,311.908,343.527,311.771,340.27,311.321z"/>
				</g>
				<g>
					<path style="fill:#1D1D1B;" d="M346.043,314.183c1.736-0.409,3.472-0.501,5.207-0.519c1.736,0.015,3.472,0.107,5.208,0.519
						c-1.736,0.412-3.472,0.504-5.208,0.519C349.514,314.684,347.778,314.592,346.043,314.183z"/>
				</g>
				<g>
					<path style="fill:#1D1D1B;" d="M557.229,302.748c-1.641,0.57-3.302,0.824-4.971,1.003c-1.673,0.147-3.351,0.217-5.071-0.03
						c1.627-0.571,3.296-0.826,4.971-1.003C553.836,302.573,555.523,302.502,557.229,302.748z"/>
				</g>
				<g>
					<path style="fill:#1D1D1B;" d="M547.694,307.153c1.029-0.451,2.071-0.585,3.116-0.644c1.046-0.027,2.096,0.023,3.158,0.393
						c-1.029,0.453-2.071,0.587-3.116,0.644C549.805,307.57,548.756,307.52,547.694,307.153z"/>
				</g>
				<g>
					<path style="fill:#1D1D1B;" d="M551.462,309.267c0.639-0.32,1.199-0.366,1.768-0.369c0.569,0.028,1.125,0.101,1.748,0.453
						c-0.546,0.468-1.167,0.584-1.773,0.584C552.599,309.903,551.986,309.758,551.462,309.267z"/>
				</g>
				<g>
					<path style="fill:#1D1D1B;" d="M549.01,304.893c0.417,0.729,0.518,1.493,0.544,2.254c-0.006,0.761-0.09,1.528-0.493,2.266
						c-0.42-0.769-0.521-1.509-0.544-2.255C548.526,306.414,548.61,305.671,549.01,304.893z"/>
				</g>
				<g>
					<path style="fill:#1D1D1B;" d="M553.851,301.509c0.482,1.123,0.621,2.284,0.656,3.442c0.002,1.158-0.101,2.323-0.552,3.46
						c-0.372-1.164-0.453-2.301-0.486-3.444C553.469,303.823,553.516,302.683,553.851,301.509z"/>
				</g>
			</g>
			<path style="fill:#FFFFFF;stroke:#1D1D1B;stroke-width:3.8558;stroke-miterlimit:10;" d="M474.919,268.466
				c0,2.221-6.903,4.022-15.417,4.022s-15.417-1.801-15.417-4.022c0-2.221,6.903-4.022,15.417-4.022
				S474.919,266.244,474.919,268.466z"/>
			<g>
				<path style="fill:none;stroke:#1D1D1B;stroke-width:2.0762;stroke-miterlimit:10;" d="M178.655,209.908
					c-0.527,0.054-1.065,0.122-1.54,0.356c-1.288,0.635-1.719,2.267-1.723,3.703c-0.001,0.437,0.03,0.894,0.259,1.266
					c0.408,0.664,1.283,0.834,2.057,0.928c3.126,0.377,6.279,0.533,9.428,0.467c2.975-0.062,5.446-3.489,2.841-5.939
					C187.786,208.63,181.353,209.63,178.655,209.908z"/>
				<path style="fill:none;stroke:#1D1D1B;stroke-width:2.0762;stroke-miterlimit:10;" d="M181.011,209.936
					c-1.272,1.74-1.708,4.063-1.155,6.146"/>
			</g>
			<g>
				<path style="fill:none;stroke:#1D1D1B;stroke-width:1.8628;stroke-miterlimit:10;" d="M132.557,206.528
					c-0.475,0.027-0.96,0.065-1.395,0.256c-1.18,0.517-1.634,1.961-1.697,3.248c-0.019,0.391-0.01,0.803,0.18,1.146
					c0.339,0.612,1.115,0.801,1.805,0.916c2.786,0.467,5.606,0.737,8.43,0.808c2.669,0.067,5.025-2.903,2.791-5.206
					C140.794,205.76,134.987,206.39,132.557,206.528z"/>
				<path style="fill:none;stroke:#1D1D1B;stroke-width:1.8628;stroke-miterlimit:10;" d="M134.668,206.65
					c-1.212,1.507-1.699,3.571-1.289,5.461"/>
			</g>
			<path style="fill:#1D1D1B;" d="M414.738,188.033c7.021,0.277,14.194,0.624,20.724,3.219c-25.558,2.715-51.305,2.992-77.005,3.266
				c-33.521,0.358-67.042,0.716-100.563,1.074c-2.054,0.022-4.218,0.017-6.008-0.993c-5.822-3.288-0.069-6.058,3.434-6.301
				c5.709-0.397,11.463-0.465,17.182-0.659c11.598-0.393,23.2-0.682,34.804-0.867c22.921-0.365,45.848-0.325,68.767,0.122
				C388.964,187.145,401.853,187.525,414.738,188.033z"/>
			<g>
				<g>
					<path style="fill:#1D1D1B;" d="M264.714,263.389c1.454-1.134,3.199-1.929,5.033-2.332c1.834-0.419,3.753-0.46,5.62-0.17
						c3.728,0.609,7.196,2.564,9.597,5.36c-2.955-2.177-6.246-3.776-9.762-4.336C271.698,261.344,268.043,261.828,264.714,263.389z"
						/>
				</g>
				<g>
					<path style="fill:#1D1D1B;" d="M267.052,352.296c3.422,1.076,6.967,1.314,10.394,0.713c3.43-0.587,6.688-2.001,9.552-4.16
						c-2.307,2.782-5.779,4.558-9.375,5.183C274.025,354.648,270.16,354.14,267.052,352.296z"/>
				</g>
				<g>
					<path style="fill:#1D1D1B;" d="M119.053,326.173c2.237-0.502,4.114-1.628,5.733-3.076c1.636-1.442,2.97-3.23,4.511-4.934
						c-0.836,2.127-2.074,4.125-3.819,5.707c-0.882,0.775-1.883,1.432-2.987,1.853C121.397,326.15,120.195,326.35,119.053,326.173z"
						/>
				</g>
				<g>
					<path style="fill:#1D1D1B;" d="M115.801,249.239c-1.223,0.799-2.362,1.493-3.441,2.313c-1.095,0.8-2.085,1.691-3.204,2.631
						c0.436-1.408,1.421-2.583,2.585-3.464C112.921,249.86,114.328,249.255,115.801,249.239z"/>
				</g>
			</g>
			<g>
				<path style="fill:#1D1D1B;" d="M558.937,288.676c-9.33,2.123-18.816,3.285-28.282,3.978c-9.474,0.7-18.93,0.996-28.377,1.38
					c-18.9,0.739-37.803,1.372-56.707,1.926c-37.81,1.1-75.627,1.827-113.446,2.191c37.81-0.883,75.609-2.129,113.39-3.747
					c18.89-0.814,37.776-1.705,56.657-2.703c18.858-1.048,37.837-1.632,56.048-6.055L558.937,288.676z"/>
			</g>
			<g>
				<path style="fill:#1D1D1B;" d="M301.907,326.738c1.677-1.003,2.837-2.858,3.603-4.878c0.762-2.032,1.247-4.25,1.678-6.444
					c0.834-4.408,1.17-8.93,0.989-13.451c0.526,4.494,0.541,9.068,0.038,13.605c-0.27,2.267-0.576,4.522-1.23,6.789
					c-0.661,2.224-1.789,4.57-3.927,6.107L301.907,326.738z"/>
			</g>
			<g>
				<path style="fill:#1D1D1B;" d="M437.852,245.695c2.618-0.374,5.225-0.573,7.829-0.728c2.604-0.168,5.205-0.244,7.807-0.326
					c2.602-0.042,5.204-0.088,7.813-0.041c2.609,0.033,5.221,0.112,7.855,0.366c-2.575,0.608-5.175,0.981-7.781,1.252
					c-2.606,0.284-5.222,0.418-7.839,0.497c-2.617,0.04-5.236,0.028-7.853-0.135C443.067,246.431,440.453,246.18,437.852,245.695z"
					/>
			</g>
			<g>
				<path style="fill:#1D1D1B;" d="M226.428,145.261c2.141,3.614,4.018,7.369,5.742,11.19c1.737,3.817,3.277,7.721,4.706,11.663
					c1.393,3.955,2.673,7.952,3.747,12.006c1.086,4.05,2.01,8.144,2.639,12.298c-1.466-3.936-2.819-7.884-4.188-11.822
					c-1.382-3.933-2.735-7.87-4.152-11.784c-1.38-3.928-2.825-7.831-4.246-11.751C229.242,153.146,227.788,149.234,226.428,145.261z
					"/>
			</g>
			<g>
				<path style="fill:#1D1D1B;" d="M117.385,216.979c4.719,0.597,9.424,1.205,14.153,1.677l14.162,1.53l28.332,2.976l28.333,2.98
					l14.17,1.469c4.721,0.543,9.451,0.931,14.186,1.387c-9.512-0.03-19.018-0.552-28.499-1.242
					c-9.484-0.676-18.951-1.555-28.407-2.53c-9.451-1.019-18.895-2.12-28.312-3.438C136.089,220.48,126.678,219.017,117.385,216.979
					z"/>
			</g>
			<path style="fill:none;stroke:#1D1D1B;stroke-width:2.0762;stroke-miterlimit:10;" d="M104.699,201.222
				c0.526,1.689,0.463,3.509,0.189,5.256c-1.215,7.763-6.406,14.413-12.556,19.303"/>
			<path style="fill:#1D1D1B;" d="M250.23,273.45c0.44-3.883,1.045-7.748,1.812-11.581c0.867-4.331,2.036-8.807,4.964-12.114
				c3.874-4.376,10.526-5.865,16.055-3.97c5.529,1.894,9.768,6.884,11.199,12.55c-7.638-1.605-15.832-0.411-22.694,3.308
				L250.23,273.45z"/>
			<path style="fill:#1D1D1B;" d="M106.077,243.414c-3.32,1.995-5.263,5.76-5.95,9.572c-0.688,3.812-0.282,7.726,0.125,11.578
				c2.058-5.192,5.373-9.798,9.034-14.015c1.173-1.351,2.408-2.688,3.945-3.604c1.532-0.914,3.303-1.288,5.054-0.901
				C115.634,242.211,110.081,241.008,106.077,243.414z"/>
			<g>
				<path style="fill:#1D1D1B;" d="M219.037,198.313c-7.701,0.504-15.413,0.431-23.051-0.211c7.665-0.049,15.301-0.671,22.823-1.852
					L219.037,198.313z"/>
			</g>
			<g>
				<path style="fill:#1D1D1B;" d="M292.21,234.874c0.55,5.129,2.153,10.166,4.687,14.701c2.538,4.529,6.079,8.526,10.388,11.465
					c4.3,2.977,9.422,4.624,14.614,5.474c5.218,0.833,10.541,0.914,15.839,0.88c-5.294,0.207-10.62,0.302-15.914-0.366
					c-5.264-0.687-10.553-2.184-15.108-5.119c-4.553-2.892-8.367-6.918-11.164-11.547c-2.793-4.635-4.647-9.843-5.405-15.24
					L292.21,234.874z"/>
			</g>
			<g>
				<path style="fill:#1D1D1B;" d="M557.678,256.443c-4.123,1.242-8.4,1.75-12.581,1.536c4.16-0.478,8.176-1.671,11.825-3.47
					L557.678,256.443z"/>
			</g>
			<g>
				<path style="fill:#1D1D1B;" d="M312.739,334.15c-1.42,4.52-3.941,8.588-7.206,11.779c2.744-3.649,4.518-7.913,5.185-12.255
					L312.739,334.15z"/>
			</g>
			<g>
				<path style="fill:#1D1D1B;" d="M300.438,355.578c1.135-0.367,2.229-1.004,3.27-1.764c1.04-0.765,2.05-1.634,3.017-2.53
					c1.934-1.804,3.699-3.813,5.255-5.995c-1.262,2.363-2.77,4.615-4.499,6.706c-0.87,1.045-1.771,2.052-2.773,3.013
					c-1.005,0.954-2.141,1.851-3.488,2.494L300.438,355.578z"/>
			</g>
			<g>
				<g>
					<path style="fill:#1D1D1B;" d="M129.657,327.87c0.83-0.202,1.666-0.803,2.453-1.532c0.798-0.736,1.555-1.534,2.262-2.376
						c1.413-1.687,2.623-3.573,3.585-5.602c-0.639,2.151-1.557,4.244-2.74,6.203c-0.593,0.979-1.246,1.926-1.967,2.833
						c-0.725,0.9-1.598,1.857-2.891,2.426L129.657,327.87z"/>
				</g>
				<g>
					<path style="fill:#1D1D1B;" d="M149.612,310.166c-1.818,4.921-4.611,9.398-8.114,13.111c2.969-4.153,5.049-8.853,6.124-13.701
						L149.612,310.166z"/>
				</g>
			</g>
			<g>
				<g>
					<path style="fill:#1D1D1B;" d="M540.042,327.817c-2.621,4.509-6.197,8.363-10.353,11.254c3.723-3.431,6.628-7.633,8.493-12.176
						L540.042,327.817z"/>
				</g>
				<g>
					<path style="fill:#1D1D1B;" d="M515.128,344.215c4.423-2.879,8.321-6.699,11.346-11.193
						c-2.427,4.843-5.869,9.254-10.102,12.855L515.128,344.215z"/>
				</g>
			</g>
			<g>
				<path style="fill:#1D1D1B;" d="M152.966,290.073c4.109,0.52,8.176,1.168,12.238,1.818l12.173,1.964l12.167,2.001
					c4.058,0.674,8.12,1.352,12.181,2.166c-4.143,0.046-8.273-0.185-12.387-0.559c-4.117-0.361-8.214-0.913-12.295-1.56
					c-4.075-0.685-8.134-1.463-12.153-2.428C160.87,292.521,156.88,291.43,152.966,290.073z"/>
			</g>
			<path style="fill:none;stroke:#1D1D1B;stroke-width:1.5572;stroke-miterlimit:10;" d="M259.974,196.308
				c8.056,3.811,17.334,3.722,26.245,3.558c46.082-0.846,92.164-1.692,138.246-2.538c5.106-0.094,10.901-0.505,14.122-4.468"/>
		</g>
	</g>
</g>
</svg>
